<svg width="33" height="31" viewBox="0 0 33 31" fill="none" xmlns="http://www.w3.org/2000/svg">
<mask id="path-1-inside-1_9_229" fill="white">
<path d="M24.6799 20.3812C24.3155 20.0476 23.8394 19.8626 23.3454 19.8626H22.7905C22.6671 19.8626 22.548 19.8176 22.4554 19.7361C22.2404 19.5467 22.2259 19.2176 22.4127 19.0004C24.0806 17.0618 25.0719 14.6219 25.0719 11.9825C25.0719 5.69591 19.4936 0.600098 12.6119 0.600098C5.7301 0.600098 0.151855 5.69591 0.151855 11.9825C0.151855 18.2691 5.7301 23.3649 12.6119 23.3649C15.5223 23.3649 18.2111 22.4461 20.3407 20.9022C20.562 20.7417 20.8674 20.7549 21.0659 20.9428C21.1758 21.047 21.238 21.1917 21.238 21.3431V21.7886C21.238 22.235 21.426 22.6607 21.7558 22.9614L29.5222 30.0419C30.2588 30.7135 31.3859 30.7129 32.1219 30.0406C32.9584 29.2765 32.959 27.9594 32.1233 27.1945L24.6799 20.3812ZM12.6119 19.8626C7.83872 19.8626 3.9857 16.3428 3.9857 11.9825C3.9857 7.62216 7.83872 4.10237 12.6119 4.10237C17.385 4.10237 21.238 7.62216 21.238 11.9825C21.238 16.3428 17.385 19.8626 12.6119 19.8626Z"/>
</mask>
<path d="M24.6799 20.3812C24.3155 20.0476 23.8394 19.8626 23.3454 19.8626H22.7905C22.6671 19.8626 22.548 19.8176 22.4554 19.7361C22.2404 19.5467 22.2259 19.2176 22.4127 19.0004C24.0806 17.0618 25.0719 14.6219 25.0719 11.9825C25.0719 5.69591 19.4936 0.600098 12.6119 0.600098C5.7301 0.600098 0.151855 5.69591 0.151855 11.9825C0.151855 18.2691 5.7301 23.3649 12.6119 23.3649C15.5223 23.3649 18.2111 22.4461 20.3407 20.9022C20.562 20.7417 20.8674 20.7549 21.0659 20.9428C21.1758 21.047 21.238 21.1917 21.238 21.3431V21.7886C21.238 22.235 21.426 22.6607 21.7558 22.9614L29.5222 30.0419C30.2588 30.7135 31.3859 30.7129 32.1219 30.0406C32.9584 29.2765 32.959 27.9594 32.1233 27.1945L24.6799 20.3812ZM12.6119 19.8626C7.83872 19.8626 3.9857 16.3428 3.9857 11.9825C3.9857 7.62216 7.83872 4.10237 12.6119 4.10237C17.385 4.10237 21.238 7.62216 21.238 11.9825C21.238 16.3428 17.385 19.8626 12.6119 19.8626Z" fill="black"/>
<path d="M21.7558 22.9614L25.7982 18.5275L21.7558 22.9614ZM20.3407 20.9022L16.819 16.0445L20.3407 20.9022ZM22.4127 19.0004L17.8644 15.0873L22.4127 19.0004ZM32.1233 27.1945L28.0722 31.6203L32.1233 27.1945ZM23.3454 19.8626V13.8626H22.7905V19.8626V25.8626H23.3454V19.8626ZM22.4127 19.0004L26.961 22.9136C29.4913 19.9726 31.0719 16.1679 31.0719 11.9825H25.0719H19.0719C19.0719 13.0759 18.67 14.151 17.8644 15.0873L22.4127 19.0004ZM25.0719 11.9825H31.0719C31.0719 1.88291 22.285 -5.3999 12.6119 -5.3999V0.600098V6.6001C16.7023 6.6001 19.0719 9.50891 19.0719 11.9825H25.0719ZM12.6119 0.600098V-5.3999C2.93876 -5.3999 -5.84814 1.88291 -5.84814 11.9825H0.151855H6.15186C6.15186 9.50891 8.52145 6.6001 12.6119 6.6001V0.600098ZM0.151855 11.9825H-5.84814C-5.84814 22.0821 2.93876 29.3649 12.6119 29.3649V23.3649V17.3649C8.52145 17.3649 6.15186 14.4561 6.15186 11.9825H0.151855ZM12.6119 23.3649V29.3649C16.7891 29.3649 20.7102 28.0452 23.8624 25.7599L20.3407 20.9022L16.819 16.0445C15.712 16.847 14.2555 17.3649 12.6119 17.3649V23.3649ZM21.238 21.3431H15.238V21.7886H21.238H27.238V21.3431H21.238ZM21.7558 22.9614L17.7135 27.3953L25.4798 34.4758L29.5222 30.0419L33.5645 25.608L25.7982 18.5275L21.7558 22.9614ZM32.1233 27.1945L36.1745 22.7686L28.7311 15.9553L24.6799 20.3812L20.6287 24.807L28.0722 31.6203L32.1233 27.1945ZM12.6119 19.8626V13.8626C11.705 13.8626 10.9966 13.5307 10.5556 13.1278C10.1245 12.7339 9.9857 12.3268 9.9857 11.9825H3.9857H-2.0143C-2.0143 20.1558 5.04738 25.8626 12.6119 25.8626V19.8626ZM3.9857 11.9825H9.9857C9.9857 11.6382 10.1245 11.231 10.5556 10.8372C10.9966 10.4343 11.705 10.1024 12.6119 10.1024V4.10237V-1.89763C5.04738 -1.89763 -2.0143 3.80917 -2.0143 11.9825H3.9857ZM12.6119 4.10237V10.1024C13.5188 10.1024 14.2271 10.4343 14.6681 10.8372C15.0993 11.231 15.238 11.6382 15.238 11.9825H21.238H27.238C27.238 3.80917 20.1763 -1.89763 12.6119 -1.89763V4.10237ZM21.238 11.9825H15.238C15.238 12.3268 15.0993 12.7339 14.6681 13.1278C14.2271 13.5307 13.5188 13.8626 12.6119 13.8626V19.8626V25.8626C20.1763 25.8626 27.238 20.1558 27.238 11.9825H21.238ZM29.5222 30.0419L25.4798 34.4758C28.5086 37.2371 33.1427 37.2348 36.1687 34.4705L32.1219 30.0406L28.0752 25.6107C29.6292 24.1911 32.0091 24.1899 33.5645 25.608L29.5222 30.0419ZM21.238 21.7886H15.238C15.238 23.9225 16.1366 25.9577 17.7135 27.3953L21.7558 22.9614L25.7982 18.5275C26.7154 19.3637 27.238 20.5475 27.238 21.7886H21.238ZM21.0659 20.9428L16.9395 25.2986C15.8533 24.2696 15.238 22.8393 15.238 21.3431H21.238H27.238C27.238 19.5441 26.4983 17.8243 25.1923 16.5871L21.0659 20.9428ZM20.3407 20.9022L23.8624 25.7599C21.8596 27.2119 18.9379 27.1918 16.9395 25.2986L21.0659 20.9428L25.1923 16.5871C22.797 14.3179 19.2644 14.2716 16.819 16.0445L20.3407 20.9022ZM22.4554 19.7361L26.4214 15.2338C28.8014 17.3303 28.8037 20.7718 26.961 22.9136L22.4127 19.0004L17.8644 15.0873C15.648 17.6634 15.6794 21.7631 18.4894 24.2384L22.4554 19.7361ZM22.7905 19.8626V13.8626C24.1273 13.8626 25.4183 14.3501 26.4214 15.2338L22.4554 19.7361L18.4894 24.2384C19.6777 25.2851 21.2069 25.8626 22.7905 25.8626V19.8626ZM32.1219 30.0406L36.1687 34.4705C39.6077 31.3289 39.6104 25.9136 36.1745 22.7686L32.1233 27.1945L28.0722 31.6203C26.3076 30.0052 26.309 27.2241 28.0752 25.6107L32.1219 30.0406ZM23.3454 19.8626V25.8626C22.3398 25.8626 21.3706 25.486 20.6287 24.807L24.6799 20.3812L28.7311 15.9553C27.2605 14.6092 25.3391 13.8626 23.3454 13.8626V19.8626Z" fill="black" mask="url(#path-1-inside-1_9_229)"/>
</svg>
