<svg width="36" height="34" viewBox="0 0 36 34" fill="none" xmlns="http://www.w3.org/2000/svg">
<path d="M30 34C28.3333 34 26.9167 33.5042 25.75 32.5125C24.5833 31.5208 24 30.3167 24 28.9C24 28.7017 24.0167 28.496 24.05 28.2829C24.0833 28.071 24.1333 27.88 24.2 27.71L10.1 20.74C9.53333 21.165 8.9 21.4976 8.2 21.7379C7.5 21.9793 6.76667 22.1 6 22.1C4.33333 22.1 2.91667 21.6042 1.75 20.6125C0.583333 19.6208 0 18.4167 0 17C0 15.5833 0.583333 14.3792 1.75 13.3875C2.91667 12.3958 4.33333 11.9 6 11.9C6.76667 11.9 7.5 12.0201 8.2 12.2604C8.9 12.5018 9.53333 12.835 10.1 13.26L24.2 6.29C24.1333 6.12 24.0833 5.92903 24.05 5.7171C24.0167 5.50403 24 5.29833 24 5.1C24 3.68333 24.5833 2.47917 25.75 1.4875C26.9167 0.495833 28.3333 0 30 0C31.6667 0 33.0833 0.495833 34.25 1.4875C35.4167 2.47917 36 3.68333 36 5.1C36 6.51667 35.4167 7.72083 34.25 8.7125C33.0833 9.70417 31.6667 10.2 30 10.2C29.2333 10.2 28.5 10.0793 27.8 9.8379C27.1 9.59763 26.4667 9.265 25.9 8.84L11.8 15.81C11.8667 15.98 11.9167 16.171 11.95 16.3829C11.9833 16.596 12 16.8017 12 17C12 17.1983 11.9833 17.4035 11.95 17.6154C11.9167 17.8285 11.8667 18.02 11.8 18.19L25.9 25.16C26.4667 24.735 27.1 24.4018 27.8 24.1604C28.5 23.9201 29.2333 23.8 30 23.8C31.6667 23.8 33.0833 24.2958 34.25 25.2875C35.4167 26.2792 36 27.4833 36 28.9C36 30.3167 35.4167 31.5208 34.25 32.5125C33.0833 33.5042 31.6667 34 30 34Z" fill="#8E8E8E"/>
</svg>
